<?xml version="1.0" encoding="UTF-8" standalone="no"?>
<svg
   xmlns:dc="http://purl.org/dc/elements/1.1/"
   xmlns:cc="http://creativecommons.org/ns#"
   xmlns:rdf="http://www.w3.org/1999/02/22-rdf-syntax-ns#"
   xmlns:svg="http://www.w3.org/2000/svg"
   xmlns="http://www.w3.org/2000/svg"
   xmlns:sodipodi="http://sodipodi.sourceforge.net/DTD/sodipodi-0.dtd"
   xmlns:inkscape="http://www.inkscape.org/namespaces/inkscape"
   id="visual"
   viewBox="0 0 500 250"
   width="500"
   height="250"
   version="1.1"
   sodipodi:docname="blob2.svg"
   inkscape:version="1.0.2-2 (e86c870879, 2021-01-15)">
  <metadata
     id="metadata24194">
    <rdf:RDF>
      <cc:Work
         rdf:about="">
        <dc:format>image/svg+xml</dc:format>
        <dc:type
           rdf:resource="http://purl.org/dc/dcmitype/StillImage" />
      </cc:Work>
    </rdf:RDF>
  </metadata>
  <sodipodi:namedview
     pagecolor="#ffffff"
     bordercolor="#666666"
     borderopacity="1"
     objecttolerance="10"
     gridtolerance="10"
     guidetolerance="10"
     inkscape:pageopacity="0"
     inkscape:pageshadow="2"
     inkscape:window-width="1920"
     inkscape:window-height="1001"
     id="namedview24192"
     showgrid="false"
     inkscape:zoom="1.1894841"
     inkscape:cx="450"
     inkscape:cy="225"
     inkscape:window-x="-9"
     inkscape:window-y="-9"
     inkscape:window-maximized="1"
     inkscape:current-layer="visual"
     inkscape:document-rotation="0" />
  <defs
     id="defs24174">
    <linearGradient
       id="grad1_0"
       x1="0.5"
       y1="1"
       x2="1"
       y2="0">
      <stop
         offset="10%"
         stop-color="#e0e0e0"
         stop-opacity="1"
         id="stop24169" />
      <stop
         offset="90%"
         stop-color="#e0e0e0"
         stop-opacity="1"
         id="stop24171" />
    </linearGradient>
  </defs>
  <defs
     id="defs24181">
    <linearGradient
       id="grad2_0"
       x1="0"
       y1="1"
       x2="0.5"
       y2="0">
      <stop
         offset="10%"
         stop-color="#e0e0e0"
         stop-opacity="1"
         id="stop24176" />
      <stop
         offset="90%"
         stop-color="#e0e0e0"
         stop-opacity="1"
         id="stop24178" />
    </linearGradient>
  </defs>
  <g
     transform="matrix(0.55555556,0,0,0.55555556,500,250)"
     id="g24185">
    <path
       d="m -292.5,0 c 20.4,-24.4 40.9,-48.8 46.2,-80 5.3,-31.3 -4.5,-69.3 9.7,-91.9 14.1,-22.7 52.3,-29.9 80.8,-42.5 28.5,-12.5 47.4,-30.4 71.7,-44.3 24.4,-13.9 54.2,-23.8 84.1,-33.8 V 0 Z"
       fill="#0e926b"
       id="path24183" />
  </g>
  <g
     transform="scale(0.55555556)"
     id="g24189">
    <path
       d="m 292.5,0 c -8.8,29.2 -17.6,58.3 -28.1,85.9 -10.5,27.6 -22.6,53.6 -37.9,78.7 -15.3,25.1 -33.7,49.3 -56.6,69.2 -23,19.9 -50.4,35.3 -79.5,44.4 -29.1,9 -59.7,11.7 -90.4,14.3 V 0 Z"
       fill="#0e926b"
       id="path24187" />
  </g>
</svg>
