<?xml version="1.0" encoding="UTF-8" standalone="no"?>
<svg
   xmlns:dc="http://purl.org/dc/elements/1.1/"
   xmlns:cc="http://creativecommons.org/ns#"
   xmlns:rdf="http://www.w3.org/1999/02/22-rdf-syntax-ns#"
   xmlns:svg="http://www.w3.org/2000/svg"
   xmlns="http://www.w3.org/2000/svg"
   xmlns:sodipodi="http://sodipodi.sourceforge.net/DTD/sodipodi-0.dtd"
   xmlns:inkscape="http://www.inkscape.org/namespaces/inkscape"
   version="1.1"
   id="svg844"
   xml:space="preserve"
   width="485.82571"
   height="287.25806"
   viewBox="0 0 485.82572 287.25805"
   sodipodi:docname="book-stack.svg"
   inkscape:version="1.0.2-2 (e86c870879, 2021-01-15)"><metadata
     id="metadata850"><rdf:RDF><cc:Work
         rdf:about=""><dc:format>image/svg+xml</dc:format><dc:type
           rdf:resource="http://purl.org/dc/dcmitype/StillImage" /><dc:title></dc:title></cc:Work></rdf:RDF></metadata><defs
     id="defs848"><clipPath
       clipPathUnits="userSpaceOnUse"
       id="clipPath860"><path
         d="M 0,0 H 731.963 V 404.089 H 0 Z"
         id="path858" /></clipPath><radialGradient
       fx="0"
       fy="0"
       cx="0"
       cy="0"
       r="1"
       gradientUnits="userSpaceOnUse"
       gradientTransform="matrix(453.69977,0,0,-453.69977,605.99554,280.17813)"
       spreadMethod="pad"
       id="radialGradient872"><stop
         style="stop-opacity:1;stop-color:#207382"
         offset="0"
         id="stop866" /><stop
         style="stop-opacity:1;stop-color:#4da2b3"
         offset="0.994845"
         id="stop868" /><stop
         style="stop-opacity:1;stop-color:#4da2b3"
         offset="1"
         id="stop870" /></radialGradient><clipPath
       clipPathUnits="userSpaceOnUse"
       id="clipPath884"><path
         d="M 0,0 H 731.963 V 404.089 H 0 Z"
         id="path882" /></clipPath></defs><sodipodi:namedview
     pagecolor="#ffffff"
     bordercolor="#666666"
     borderopacity="1"
     objecttolerance="10"
     gridtolerance="10"
     guidetolerance="10"
     inkscape:pageopacity="0"
     inkscape:pageshadow="2"
     inkscape:window-width="1920"
     inkscape:window-height="1001"
     id="namedview846"
     showgrid="false"
     inkscape:zoom="1.3024236"
     inkscape:cx="152.4172"
     inkscape:cy="40.331821"
     inkscape:window-x="-9"
     inkscape:window-y="-9"
     inkscape:window-maximized="1"
     inkscape:current-layer="g852" /><g
     id="g852"
     inkscape:groupmode="layer"
     inkscape:label="vectorstock_20936264"
     transform="matrix(1.3333333,0,0,-1.3333333,-489.20936,309.78907)"><g
       id="g854"><g
         id="g856"
         clip-path="url(#clipPath860)"><g
           id="g862"><g
             id="g864" /></g></g></g><g
       id="g878"
       transform="rotate(-90,549.09165,199.76962)"><g
         id="g880"
         clip-path="url(#clipPath884)"><g
           id="g886"
           transform="translate(879.9102,17.585)"><path
             d="m 0,0 h -329.487 c -0.781,0 -1.412,0.633 -1.412,1.413 v 5.51 c 0,0.78 0.631,1.412 1.412,1.412 H 0 c 0.779,0 1.412,-0.632 1.412,-1.412 V 1.413 C 1.412,0.633 0.779,0 0,0"
             style="fill:#125159;fill-opacity:1;fill-rule:evenodd;stroke:none"
             id="path888" /></g><g
           id="g890"
           transform="translate(828.6816,175.3877)"><path
             d="m 0,0 c 11.038,0 20.07,-9.031 20.07,-20.07 v -1.899 c 0,-11.038 -9.032,-20.07 -20.07,-20.07 h -250.135 c -3.085,0 -12.839,0.565 -12.839,0.565 0,0 3.909,12.747 4.027,19.633 0.129,7.515 -3.979,21.298 -3.979,21.298 0,0 6.689,0.256 11.902,0.494 8.198,0.377 16.735,0.074 24.961,0.049 z"
             style="fill:#fbf7ee;fill-opacity:1;fill-rule:evenodd;stroke:none"
             id="path892" /></g><g
           id="g894"
           transform="translate(827.3027,179.6387)"><path
             d="M 0,0 C 13.346,0 24.251,-10.905 24.251,-24.251 V -26.15 C 24.251,-39.496 13.346,-50.401 0,-50.401 h -250.135 c -3.094,-0.011 -13.784,-0.672 -15.962,0.395 -3.538,1.733 -1.858,8.359 5.132,8.305 3.549,-0.028 7.193,-0.316 10.83,-0.338 H 0 c 8.73,0 15.889,7.158 15.889,15.889 v 1.899 c 0,8.73 -7.159,15.889 -15.889,15.889 h -226.063 v 0.016 c -8.258,0.026 -16.531,0.329 -24.782,-0.049 -3.184,-0.15 -12.492,-1.305 -14.854,0.377 -2.468,1.756 -3.932,6.744 1.563,7.403 3.417,0.409 9.218,0.382 12.932,0.55 8.373,0.382 16.762,0.073 25.141,0.048 V 0 Z"
             style="fill:#4da2b3;fill-opacity:1;fill-rule:evenodd;stroke:none"
             id="path896" /></g><g
           id="g898"
           transform="translate(568.6299,163.0948)"><path
             d="m 0,0 h 272.55 l 0.295,-0.553 0.432,-0.922 H 0.273 Z"
             style="fill:#dac9c4;fill-opacity:1;fill-rule:evenodd;stroke:none"
             id="path900" /></g><g
           id="g902"
           transform="translate(569.208,148.4717)"><path
             d="m 0,0 273.188,0.069 -0.452,-1.199 -0.41,-0.891 -272.683,0.016 z"
             style="fill:#dac9c4;fill-opacity:1;fill-rule:evenodd;stroke:none"
             id="path904" /></g><g
           id="g906"
           transform="translate(567.292,169.1123)"><path
             d="m 0,0 268.264,0.006 1.245,-0.836 H 0.202 Z"
             style="fill:#dac9c4;fill-opacity:1;fill-rule:evenodd;stroke:none"
             id="path908" /></g><g
           id="g910"
           transform="translate(568.5068,144.6436)"><path
             d="M 0,0 H 271.972 L 271.367,-0.837 -0.205,-0.82 Z"
             style="fill:#dac9c4;fill-opacity:1;fill-rule:evenodd;stroke:none"
             id="path912" /></g><g
           id="g914"
           transform="translate(569.6543,152.3633)"><path
             d="M 0,0 273.486,-0.135 273.41,-0.88 -0.042,-0.84 Z"
             style="fill:#dac9c4;fill-opacity:1;fill-rule:evenodd;stroke:none"
             id="path916" /></g><g
           id="g918"
           transform="translate(798.1455,169.7715)"><path
             d="m 0,0 c -16.853,0.078 -33.708,0.158 -50.563,0.237 -4.32,0.021 -8.642,0.04 -12.963,0.061 -4.323,0.02 -8.644,0.041 -12.965,0.06 -8.644,0.04 -17.286,0.081 -25.93,0.122 -4.321,0.02 -8.642,0.041 -12.965,0.061 -4.321,0.021 -8.642,0.04 -12.964,0.062 -12.965,0.059 -25.929,0.121 -38.894,0.181 l -51.859,0.243 c -2.852,0.013 -14.914,-0.259 -16.768,0.498 -0.872,0.357 -2.327,1.378 -2.014,2.47 2.781,0.415 8.727,0.157 11.836,0.155 84.288,-0.048 168.6,-0.239 252.886,-0.143 2.027,0.001 7.716,-0.494 9.275,-1.466 1.469,-0.915 4.14,-4.957 3.168,-4.663 -1.502,0.455 -2.222,2.449 -5.477,2.59 C 29.778,0.641 24.663,0.389 20.541,0.299 13.686,0.149 6.861,-0.024 0,0"
             style="fill:#398797;fill-opacity:1;fill-rule:evenodd;stroke:none"
             id="path920" /></g><g
           id="g922"
           transform="translate(798.5,133.459)"><path
             d="m 0,0 c -16.773,-0.077 -33.55,-0.158 -50.325,-0.237 -4.301,-0.021 -8.603,-0.04 -12.904,-0.061 -4.301,-0.019 -8.602,-0.041 -12.903,-0.06 -8.602,-0.04 -17.206,-0.081 -25.807,-0.121 -4.302,-0.021 -8.603,-0.042 -12.905,-0.062 -4.302,-0.02 -8.601,-0.04 -12.903,-0.061 -12.904,-0.06 -25.808,-0.121 -38.711,-0.182 -17.205,-0.081 -34.41,-0.162 -51.615,-0.242 -2.839,-0.014 -14.844,0.258 -16.691,-0.499 -0.867,-0.356 -2.314,-1.378 -2.003,-2.469 2.767,-0.416 8.687,-0.157 11.781,-0.156 83.891,0.047 167.806,0.022 251.696,-0.072 2.017,-0.002 7.672,0.528 9.399,1.13 0.904,0.315 3.597,1.427 5.779,2.725 2.234,1.33 3.992,3.261 3.505,3.114 C 43.9,2.294 36.882,-0.327 33.643,-0.467 29.638,-0.64 24.546,-0.388 20.444,-0.298 13.62,-0.149 6.828,0.024 0,0"
             style="fill:#398797;fill-opacity:1;fill-rule:evenodd;stroke:none"
             id="path924" /></g><g
           id="g926"
           transform="translate(854.4062,90.4336)"><path
             d="m 0,0 c 15.33,0 27.856,-13.969 27.856,-31.064 v -2.433 C 27.856,-50.593 15.33,-64.563 0,-64.563 h -287.329 c -3.554,-0.012 -15.833,-0.859 -18.335,0.507 -4.064,2.22 -2.134,10.707 5.895,10.638 4.077,-0.034 8.262,-0.402 12.44,-0.432 H 0 c 10.028,0 18.251,9.169 18.251,20.353 v 2.433 c 0,11.182 -8.223,20.352 -18.251,20.352 h -259.678 v 0.022 c -9.485,0.032 -18.988,0.422 -28.467,-0.062 -3.658,-0.193 -14.348,-1.673 -17.062,0.481 -2.835,2.25 -4.516,8.639 1.796,9.483 3.926,0.524 10.588,0.489 14.853,0.705 9.62,0.49 19.256,0.093 28.88,0.062 V 0 Z"
             style="fill:#972209;fill-opacity:1;fill-rule:evenodd;stroke:none"
             id="path928" /></g><g
           id="g930"
           transform="translate(850.6738,83.9629)"><path
             d="m 0,0 c 12.456,0 22.648,-11.349 22.648,-25.219 v -2.386 C 22.648,-41.476 12.456,-52.824 0,-52.824 h -282.272 c -3.482,0 -14.488,0.71 -14.488,0.71 0,0 4.41,16.017 4.543,24.67 0.146,9.442 -4.489,26.761 -4.489,26.761 0,0 7.548,0.322 13.431,0.622 9.251,0.472 18.885,0.093 28.167,0.061 z"
             style="fill:#fbf7ee;fill-opacity:1;fill-rule:evenodd;stroke:none"
             id="path932" /></g><g
           id="g934"
           transform="translate(557.2725,69.2412)"><path
             d="m 0,0 313.79,0.001 0.34,-0.708 0.5,-1.182 H 0.315 Z"
             style="fill:#dac9c4;fill-opacity:1;fill-rule:evenodd;stroke:none"
             id="path936" /></g><g
           id="g938"
           transform="translate(557.9395,50.5108)"><path
             d="m 0,0 314.524,0.089 -0.519,-1.536 -0.473,-1.142 -313.943,0.02 z"
             style="fill:#dac9c4;fill-opacity:1;fill-rule:evenodd;stroke:none"
             id="path940" /></g><g
           id="g942"
           transform="translate(555.7344,76.9492)"><path
             d="m 0,0 308.854,0.009 1.434,-1.071 H 0.231 Z"
             style="fill:#dac9c4;fill-opacity:1;fill-rule:evenodd;stroke:none"
             id="path944" /></g><g
           id="g946"
           transform="translate(557.1328,45.6055)"><path
             d="M 0,0 H 313.124 L 312.428,-1.071 -0.237,-1.049 Z"
             style="fill:#dac9c4;fill-opacity:1;fill-rule:evenodd;stroke:none"
             id="path948" /></g><g
           id="g950"
           transform="translate(558.4531,55.4951)"><path
             d="M 0,0 314.868,-0.172 314.78,-1.126 -0.049,-1.076 Z"
             style="fill:#dac9c4;fill-opacity:1;fill-rule:evenodd;stroke:none"
             id="path952" /></g><g
           id="g954"
           transform="translate(821.8359,82.2823)"><path
             d="m 0,0 c -19.312,0.1 -38.626,0.202 -57.938,0.305 -4.952,0.024 -9.905,0.05 -14.857,0.076 -4.951,0.026 -9.903,0.053 -14.854,0.078 -9.906,0.052 -19.81,0.104 -29.712,0.155 -4.952,0.027 -9.906,0.053 -14.858,0.079 -4.952,0.025 -9.902,0.051 -14.854,0.078 -14.858,0.077 -29.712,0.156 -44.569,0.233 -19.807,0.104 -39.616,0.208 -59.423,0.311 -3.268,0.017 -17.089,-0.332 -19.214,0.638 -0.999,0.457 -2.666,1.766 -2.307,3.164 3.186,0.532 9.999,0.201 13.562,0.199 C -170.299,5.258 -81.565,4.904 7.16,5.09 14.767,5.106 30.366,6.248 36.798,3.872 41.122,2.276 43.887,-0.79 46.31,-4.189 47.34,-5.664 49.364,-9.64 45.962,-6.21 38.311,1.354 32.729,1.574 21.88,0.804 17.878,0.519 13.557,0.336 9.531,0.142 6.357,-0.012 3.181,-0.006 0,0"
             style="fill:#6f1401;fill-opacity:1;fill-rule:evenodd;stroke:none"
             id="path956" /></g><g
           id="g958"
           transform="translate(821.3203,31.2803)"><path
             d="m 0,0 c -19.268,-0.1 -38.538,-0.202 -57.808,-0.305 -4.94,-0.025 -9.88,-0.05 -14.822,-0.077 -4.94,-0.025 -9.882,-0.052 -14.822,-0.078 -9.882,-0.051 -19.764,-0.103 -29.645,-0.154 -4.941,-0.027 -9.882,-0.053 -14.823,-0.079 -4.94,-0.027 -9.882,-0.051 -14.822,-0.078 -14.823,-0.078 -29.645,-0.156 -44.467,-0.234 -19.764,-0.104 -39.527,-0.208 -59.29,-0.31 -3.261,-0.018 -17.051,0.332 -19.171,-0.639 -0.997,-0.456 -2.66,-1.766 -2.302,-3.163 3.178,-0.532 9.978,-0.201 13.532,-0.199 96.366,0.061 192.759,0.028 289.122,-0.093 2.316,-0.001 8.813,0.677 10.797,1.448 1.038,0.402 4.13,1.827 6.637,3.491 2.567,1.702 4.585,4.176 4.026,3.988 C 50.428,2.938 42.365,-0.42 38.646,-0.599 34.045,-0.819 28.196,-0.497 23.484,-0.382 15.645,-0.191 7.844,0.031 0,0"
             style="fill:#6f1401;fill-opacity:1;fill-rule:evenodd;stroke:none"
             id="path960" /></g><g
           id="g962"
           transform="translate(556.0156,40.4063)"><path
             d="M 0,0 312.167,0.002 311.354,-1.169 310.628,-1.888 -0.396,-1.75 Z"
             style="fill:#dac9c4;fill-opacity:1;fill-rule:evenodd;stroke:none"
             id="path964" /></g><path
           d="M 601.406,122.289 H 875.021 V 93.316 H 601.406 Z"
           style="fill:#f2ecdf;fill-opacity:1;fill-rule:evenodd;stroke:none"
           id="path966" /><g
           id="g968"
           transform="translate(601.418,101.416)"><path
             d="M 0,0 274.111,-0.173 274.033,-1.127 -0.042,-1.076 Z"
             style="fill:#dac9c4;fill-opacity:1;fill-rule:evenodd;stroke:none"
             id="path970" /></g><g
           id="g972"
           transform="translate(601.4863,111.1367)"><path
             d="M 0,0 274.111,-0.173 274.033,-1.127 -0.042,-1.076 Z"
             style="fill:#dac9c4;fill-opacity:1;fill-rule:evenodd;stroke:none"
             id="path974" /></g><g
           id="g976"
           transform="translate(601.4453,109.168)"><path
             d="M 0,0 274.111,-0.086 274.033,-0.563 -0.042,-0.539 Z"
             style="fill:#dac9c4;fill-opacity:1;fill-rule:evenodd;stroke:none"
             id="path978" /></g><g
           id="g980"
           transform="translate(872.6064,114.835)"><path
             d="M 0,0 C -0.815,3.883 -3.071,7.324 -9.197,7.908 -17.822,8.731 -37.233,7.833 -46.92,7.838 h -185.147 -1.024 V 7.85 c -8.257,0.018 -16.53,0.248 -24.781,-0.036 -3.185,-0.112 -12.492,-0.271 -14.855,0.987 -2.466,1.314 -3.93,4.343 1.565,4.836 3.416,0.306 9.217,0.285 12.931,0.411 8.373,0.286 16.762,0.055 25.14,0.036 v 0.013 c 74.047,-0.002 148.069,-0.055 222.116,0.066 C -0.666,14.058 6.388,12.864 7.477,0.324 L 7.481,-10.96 c -1.167,-12.286 -8.194,-13.462 -18.428,-13.566 -74.048,0.121 -148.07,0.068 -222.115,0.066 v 0.013 c -8.379,-0.019 -16.769,-0.251 -25.142,0.036 -3.714,0.126 -9.515,0.104 -12.931,0.411 -5.495,0.493 -4.031,3.521 -1.563,4.836 2.362,1.258 11.669,1.099 14.853,0.986 8.252,-0.283 16.525,-0.053 24.783,-0.036 v 0.012 h 1.022 185.147 c 9.687,0.006 29.098,-0.893 37.723,-0.069 4.981,0.475 8.164,2.916 9.19,7.869 z"
             style="fill:#575756;fill-opacity:1;fill-rule:evenodd;stroke:none"
             id="path982" /></g><path
           d="M 856.495,244.245 H 582.88 v -59.368 h 273.615 z"
           style="fill:#fbf7ee;fill-opacity:1;fill-rule:evenodd;stroke:none"
           id="path984" /><g
           id="g986"
           transform="translate(856.4834,201.4732)"><path
             d="m 0,0 -274.11,-0.353 0.077,-1.956 274.075,0.102 z"
             style="fill:#dac9c4;fill-opacity:1;fill-rule:evenodd;stroke:none"
             id="path988" /></g><g
           id="g990"
           transform="translate(856.415,221.3916)"><path
             d="m 0,0 -274.111,-0.354 0.078,-1.955 274.075,0.103 z"
             style="fill:#dac9c4;fill-opacity:1;fill-rule:evenodd;stroke:none"
             id="path992" /></g><g
           id="g994"
           transform="translate(856.4561,217.3579)"><path
             d="m 0,0 -274.111,-0.177 0.078,-0.978 274.075,0.051 z"
             style="fill:#dac9c4;fill-opacity:1;fill-rule:evenodd;stroke:none"
             id="path996" /></g><g
           id="g998"
           transform="translate(588.085,250.7237)"><path
             d="m 0,0 h -6.456 -2.441 c -3.651,-10.501 -5.832,-23.743 -5.832,-38.089 0,-12.057 1.541,-23.332 4.199,-32.859 h 2.637 6.061 c 89.568,0 179.138,0.013 268.706,0 3.808,-0.06 11.79,-0.092 11.66,4.649 -0.12,4.36 -5.917,3.291 -8.947,3.248 -1.255,-0.016 -2.509,-0.036 -3.764,-0.045 H -3.865 c -1.602,7.523 -2.501,16.008 -2.501,25.007 0,11.153 1.383,21.519 3.77,30.237 89.083,0 178.168,0.066 267.251,0.001 3.61,-0.003 11.624,-1.529 11.808,4.096 0.154,4.744 -5.751,3.888 -8.804,3.797 C 267.002,0.022 266.352,0.006 265.694,0 177.13,0.003 88.564,0 0,0"
             style="fill:#d69f19;fill-opacity:1;fill-rule:evenodd;stroke:none"
             id="path1000" /></g><g
           id="g1002"
           transform="translate(587.1982,253.083)"><path
             d="m 0,0 h -6.455 -2.442 c -3.651,-10.502 -5.832,-23.744 -5.832,-38.089 0,-12.057 1.541,-23.333 4.2,-32.859 h 2.636 6.061 c 92.349,0 184.717,0.131 277.062,0 3.475,-0.005 4.4,1.866 3.161,5.332 -1.066,2.979 -5.815,2.519 -8.909,2.52 -91.115,0.032 -182.232,0 -273.347,0 -1.601,7.523 -2.501,16.008 -2.501,25.007 0,11.152 1.383,21.519 3.77,30.236 89.43,0 178.863,0.046 268.291,0 3.71,-0.001 11.001,-1.4 10.827,4.348 -0.12,3.983 -4.556,3.515 -7.689,3.505 -42.348,-0.132 -84.741,0 -127.094,0 z"
             style="fill:#fcca5a;fill-opacity:1;fill-rule:evenodd;stroke:none"
             id="path1004" /></g><path
           d="M 520.988,276.947 H 848.85 V 255.366 H 520.988 Z"
           style="fill:#f2ecdf;fill-opacity:1;fill-rule:evenodd;stroke:none"
           id="path1006" /><g
           id="g1008"
           transform="translate(521.0039,261.3985)"><path
             d="M 0,0 328.454,-0.128 328.361,-0.839 -0.052,-0.802 Z"
             style="fill:#dac9c4;fill-opacity:1;fill-rule:evenodd;stroke:none"
             id="path1010" /></g><g
           id="g1012"
           transform="translate(521.0859,268.6397)"><path
             d="M 0,0 328.454,-0.129 328.362,-0.84 -0.052,-0.802 Z"
             style="fill:#dac9c4;fill-opacity:1;fill-rule:evenodd;stroke:none"
             id="path1014" /></g><g
           id="g1016"
           transform="translate(521.0361,267.1729)"><path
             d="M 0,0 328.455,-0.064 328.362,-0.42 -0.05,-0.401 Z"
             style="fill:#dac9c4;fill-opacity:1;fill-rule:evenodd;stroke:none"
             id="path1018" /></g><g
           id="g1020"
           transform="translate(845.9561,271.3941)"><path
             d="M 0,0 C -0.977,2.893 -3.68,5.456 -11.021,5.891 -21.355,6.503 -44.615,5.834 -56.222,5.839 h -221.854 -1.227 v 0.008 c -9.893,0.014 -19.806,0.185 -29.694,-0.027 -3.815,-0.083 -14.968,-0.201 -17.799,0.735 -2.956,0.98 -4.71,3.235 1.874,3.603 4.093,0.228 11.045,0.212 15.494,0.306 10.033,0.213 20.086,0.041 30.125,0.027 V 10.5 c 88.727,0 177.425,-0.04 266.153,0.049 C -0.797,10.472 7.655,9.583 8.96,0.242 l 0.005,-8.405 c -1.399,-9.152 -9.819,-10.028 -22.082,-10.106 -88.728,0.09 -177.425,0.051 -266.152,0.049 v 0.01 c -10.04,-0.015 -20.091,-0.186 -30.126,0.027 -4.45,0.094 -11.401,0.078 -15.494,0.306 -6.585,0.368 -4.83,2.623 -1.874,3.602 2.83,0.937 13.984,0.819 17.799,0.735 9.888,-0.211 19.8,-0.041 29.695,-0.026 v 0.008 h 1.225 221.855 c 11.607,0.004 34.868,-0.665 45.203,-0.052 5.965,0.354 9.781,2.172 11.009,5.862 z"
             style="fill:#6f1401;fill-opacity:1;fill-rule:evenodd;stroke:none"
             id="path1022" /></g><g
           id="g1024"
           transform="translate(844.6797,327.8057)"><path
             d="m 0,0 c 12.874,0 23.407,-9.032 23.407,-20.07 v -1.899 c 0,-11.039 -10.533,-20.07 -23.407,-20.07 h -291.723 c -3.597,0 -14.974,0.565 -14.974,0.565 0,0 4.558,12.747 4.697,19.633 0.149,7.514 -4.641,21.298 -4.641,21.298 0,0 7.801,0.255 13.88,0.495 9.562,0.376 19.519,0.073 29.112,0.048 z"
             style="fill:#fbf7ee;fill-opacity:1;fill-rule:evenodd;stroke:none"
             id="path1026" /></g><g
           id="g1028"
           transform="translate(843.0723,332.0562)"><path
             d="M 0,0 C 15.564,0 28.283,-10.905 28.283,-24.251 V -26.15 C 28.283,-39.496 15.564,-50.401 0,-50.401 h -291.724 c -3.607,-0.011 -16.076,-0.672 -18.616,0.395 -4.126,1.733 -2.166,8.359 5.986,8.305 4.138,-0.027 8.388,-0.315 12.63,-0.338 H 0 c 10.182,0 18.53,7.159 18.53,15.889 v 1.899 c 0,8.73 -8.348,15.889 -18.53,15.889 h -263.65 v 0.016 c -9.63,0.025 -19.279,0.33 -28.902,-0.048 -3.714,-0.151 -14.569,-1.306 -17.324,0.376 -2.878,1.756 -4.585,6.744 1.823,7.402 3.987,0.41 10.75,0.383 15.081,0.551 9.766,0.383 19.55,0.072 29.322,0.048 V 0 Z"
             style="fill:#a3957a;fill-opacity:1;fill-rule:evenodd;stroke:none"
             id="path1030" /></g><g
           id="g1032"
           transform="translate(541.3906,315.5117)"><path
             d="m 0,0 317.865,0.001 0.345,-0.553 0.505,-0.922 H 0.319 Z"
             style="fill:#dac9c4;fill-opacity:1;fill-rule:evenodd;stroke:none"
             id="path1034" /></g><g
           id="g1036"
           transform="translate(542.0654,300.8892)"><path
             d="m 0,0 318.609,0.07 -0.526,-1.199 -0.479,-0.892 -318.02,0.016 z"
             style="fill:#dac9c4;fill-opacity:1;fill-rule:evenodd;stroke:none"
             id="path1038" /></g><g
           id="g1040"
           transform="translate(539.832,321.5293)"><path
             d="m 0,0 312.865,0.007 1.452,-0.836 H 0.234 Z"
             style="fill:#dac9c4;fill-opacity:1;fill-rule:evenodd;stroke:none"
             id="path1042" /></g><g
           id="g1044"
           transform="translate(541.2471,297.0606)"><path
             d="M 0,0 H 317.191 L 316.486,-0.836 -0.239,-0.819 Z"
             style="fill:#dac9c4;fill-opacity:1;fill-rule:evenodd;stroke:none"
             id="path1046" /></g><g
           id="g1048"
           transform="translate(542.585,304.7813)"><path
             d="M 0,0 318.959,-0.135 318.869,-0.88 -0.049,-0.84 Z"
             style="fill:#dac9c4;fill-opacity:1;fill-rule:evenodd;stroke:none"
             id="path1050" /></g><g
           id="g1052"
           transform="translate(809.0674,322.1895)"><path
             d="m 0,0 c -19.654,0.078 -39.313,0.158 -58.97,0.237 -5.039,0.02 -10.079,0.041 -15.119,0.061 -5.041,0.02 -10.081,0.04 -15.12,0.061 -10.08,0.04 -20.161,0.081 -30.24,0.121 -5.041,0.02 -10.081,0.041 -15.121,0.061 -5.04,0.02 -10.079,0.04 -15.12,0.061 -15.121,0.06 -30.242,0.121 -45.362,0.182 -20.16,0.081 -40.321,0.162 -60.48,0.243 -3.325,0.013 -17.394,-0.259 -19.557,0.498 -1.016,0.356 -2.713,1.378 -2.348,2.47 3.243,0.415 10.177,0.157 13.804,0.155 98.302,-0.048 196.632,-0.239 294.931,-0.144 2.365,0.002 8.999,-0.494 10.818,-1.465 1.713,-0.916 4.827,-4.957 3.695,-4.664 -1.75,0.456 -2.593,2.45 -6.388,2.59 C 34.729,0.641 28.764,0.388 23.956,0.298 15.96,0.149 8.001,-0.024 0,0"
             style="fill:#8b7a57;fill-opacity:1;fill-rule:evenodd;stroke:none"
             id="path1054" /></g><g
           id="g1056"
           transform="translate(809.4805,285.877)"><path
             d="m 0,0 c -19.562,-0.078 -39.128,-0.158 -58.692,-0.237 -5.016,-0.02 -10.033,-0.04 -15.049,-0.06 -5.017,-0.021 -10.033,-0.041 -15.049,-0.062 -10.033,-0.04 -20.066,-0.081 -30.098,-0.121 -5.017,-0.02 -10.034,-0.041 -15.05,-0.061 -5.017,-0.02 -10.033,-0.04 -15.049,-0.061 -15.049,-0.06 -30.099,-0.121 -45.147,-0.182 -20.066,-0.082 -40.133,-0.163 -60.197,-0.243 -3.31,-0.014 -17.312,0.259 -19.465,-0.498 -1.012,-0.356 -2.7,-1.378 -2.336,-2.47 3.226,-0.415 10.13,-0.157 13.737,-0.155 97.841,0.047 195.708,0.022 293.545,-0.072 2.353,-0.002 8.949,0.527 10.962,1.129 1.055,0.315 4.196,1.427 6.741,2.726 2.605,1.329 4.655,3.261 4.085,3.113 C 51.199,2.294 43.014,-0.328 39.237,-0.468 34.565,-0.64 28.628,-0.388 23.844,-0.298 15.885,-0.15 7.964,0.024 0,0"
             style="fill:#8b7a57;fill-opacity:1;fill-rule:evenodd;stroke:none"
             id="path1058" /></g><path
           d="m 793.984,375.703 h -243.95 v -39.937 h 243.95 z"
           style="fill:#ffffff;fill-opacity:1;fill-rule:evenodd;stroke:none"
           id="path1060" /><g
           id="g1062"
           transform="translate(793.9727,346.9307)"><path
             d="m 0,0 -242.575,-0.238 0.068,-1.315 242.545,0.069 z"
             style="fill:#c0b7a4;fill-opacity:1;fill-rule:evenodd;stroke:none"
             id="path1064" /></g><g
           id="g1066"
           transform="translate(793.9131,360.3296)"><path
             d="m 0,0 -242.576,-0.237 0.068,-1.316 242.544,0.07 z"
             style="fill:#c0b7a4;fill-opacity:1;fill-rule:evenodd;stroke:none"
             id="path1068" /></g><g
           id="g1070"
           transform="translate(793.9492,357.6162)"><path
             d="m 0,0 -242.576,-0.119 0.068,-0.658 242.545,0.034 z"
             style="fill:#c0b7a4;fill-opacity:1;fill-rule:evenodd;stroke:none"
             id="path1072" /></g><g
           id="g1074"
           transform="translate(543.418,354.439)"><path
             d="m 0,0 c 0.027,-5.874 0.822,-12.851 2.431,-18.508 1.369,-4.812 4.683,-3.633 8.974,-3.599 17.556,0.136 35.225,0.003 52.794,0.004 61.669,0.002 123.339,0.006 185.008,-10e-4 3.368,-0.041 10.433,-0.062 10.317,3.127 -0.106,2.933 -5.235,2.214 -7.917,2.186 -1.111,-0.012 -2.22,-0.024 -3.331,-0.031 -78.855,0 -157.718,0.08 -236.573,0 -2.29,-0.002 -2.042,-0.34 -2.578,1.867 -1.199,4.938 -1.7,9.88 -1.724,14.955 0.028,5.697 0.769,12.21 2.404,17.68 0.897,3.003 2.195,2.757 5.083,2.692 8.07,-0.181 16.459,-0.031 24.564,-0.03 69.264,0.008 138.527,0.036 207.791,-0.002 3.194,-0.002 10.286,-1.028 10.448,2.756 0.138,3.192 -5.088,2.616 -7.789,2.554 -0.582,-0.013 -1.158,-0.025 -1.74,-0.028 -77.85,0.002 -155.712,-0.102 -233.559,0 C 12.745,25.625 6.718,26.017 5.437,25.226 3.109,23.788 0.858,11.38 0.504,8.456 0.16,5.613 0.014,2.862 0,0"
             style="fill:#809614;fill-opacity:1;fill-rule:evenodd;stroke:none"
             id="path1076" /></g><g
           id="g1078"
           transform="translate(543.1377,364.481)"><path
             d="m 0,0 c -0.344,-2.842 -0.49,-5.594 -0.504,-8.456 0.029,-6.338 0.845,-12.844 2.599,-18.945 1.159,-4.029 3.467,-3.67 7.15,-3.593 7.751,0.162 15.837,0.436 23.62,0.437 74.41,0.012 148.822,0.078 223.232,-0.002 3.075,-0.003 3.893,1.255 2.797,3.586 -0.943,2.006 -5.147,1.697 -7.885,1.697 -80.284,0.021 -160.571,-0.045 -240.855,0 -1.4,0 -0.975,-0.352 -1.415,1.395 -1.284,5.105 -1.819,10.168 -1.843,15.425 0.027,5.532 1.025,15.296 3.409,20.254 2.474,0.261 6.689,0.087 9.342,0.087 76.003,0.002 152.007,0.029 228.011,0 3.284,-10e-4 9.736,-0.942 9.582,2.924 -0.106,2.68 -4.032,2.365 -6.804,2.358 -37.476,-0.089 -74.994,0 -112.473,0 -41.629,0 -83.465,0.123 -125.089,0.244 C 10.361,17.417 5.761,17.961 4.086,15.72 2.354,13.402 0.422,3.271 0,0"
             style="fill:#9db712;fill-opacity:1;fill-rule:evenodd;stroke:none"
             id="path1080" /></g></g></g></g></svg>
