<?xml version="1.0" encoding="UTF-8" standalone="no"?>
<svg
   xmlns:dc="http://purl.org/dc/elements/1.1/"
   xmlns:cc="http://creativecommons.org/ns#"
   xmlns:rdf="http://www.w3.org/1999/02/22-rdf-syntax-ns#"
   xmlns:svg="http://www.w3.org/2000/svg"
   xmlns="http://www.w3.org/2000/svg"
   xmlns:sodipodi="http://sodipodi.sourceforge.net/DTD/sodipodi-0.dtd"
   xmlns:inkscape="http://www.inkscape.org/namespaces/inkscape"
   version="1.1"
   id="svg833"
   xml:space="preserve"
   width="499.99973"
   height="500"
   viewBox="0 0 499.99974 500.00002"
   sodipodi:docname="logo-hover.svg"
   inkscape:version="1.0.2-2 (e86c870879, 2021-01-15)"><metadata
     id="metadata839"><rdf:RDF><cc:Work
         rdf:about=""><dc:format>image/svg+xml</dc:format><dc:type
           rdf:resource="http://purl.org/dc/dcmitype/StillImage" /><dc:title></dc:title></cc:Work></rdf:RDF></metadata><defs
     id="defs837"><clipPath
       clipPathUnits="userSpaceOnUse"
       id="clipPath849"><path
         d="M 0,1000 H 1000 V 0 H 0 Z"
         id="path847" /></clipPath><clipPath
       clipPathUnits="userSpaceOnUse"
       id="clipPath857"><path
         d="M 0,1000 H 1000 V 0 H 0 Z"
         id="path855" /></clipPath><clipPath
       clipPathUnits="userSpaceOnUse"
       id="clipPath861"><path
         d="M 0,1000 V 131.844 0 H 1000 V 0.521 1000 Z"
         id="path859" /></clipPath><radialGradient
       fx="0"
       fy="0"
       cx="0"
       cy="0"
       r="1"
       gradientUnits="userSpaceOnUse"
       gradientTransform="matrix(500,0,0,-500,500,500)"
       spreadMethod="pad"
       id="radialGradient871"><stop
         style="stop-opacity:1;stop-color:#ffffff"
         offset="0"
         id="stop863" /><stop
         style="stop-opacity:1;stop-color:#ffffff"
         offset="0.46417252"
         id="stop865" /><stop
         style="stop-opacity:1;stop-color:#414042"
         offset="0.994413"
         id="stop867" /><stop
         style="stop-opacity:1;stop-color:#414042"
         offset="1"
         id="stop869" /></radialGradient></defs><sodipodi:namedview
     pagecolor="#ffffff"
     bordercolor="#666666"
     borderopacity="1"
     objecttolerance="10"
     gridtolerance="10"
     guidetolerance="10"
     inkscape:pageopacity="0"
     inkscape:pageshadow="2"
     inkscape:window-width="1920"
     inkscape:window-height="1001"
     id="namedview835"
     showgrid="false"
     inkscape:zoom="0.6012618"
     inkscape:cx="215.7105"
     inkscape:cy="500.11255"
     inkscape:window-x="-9"
     inkscape:window-y="-9"
     inkscape:window-maximized="1"
     inkscape:current-layer="g841" /><g
     id="g841"
     inkscape:groupmode="layer"
     inkscape:label="vectorstock_29197040"
     transform="matrix(1.3333333,0,0,-1.3333333,-450.95613,1166.7792)"><g
       id="g997"
       transform="matrix(1.0903693,0,0,1.0903693,645.40593,-75.000444)"><path
         d="m -176.82086,540.9871 c 20.604,-8.733 43.264,-13.565 67.052,-13.565 29.025,0 56.363,7.201 80.344,19.898 l -66.571,72.368 c 0,0 -39.404,-59.881 -80.825,-78.701"
         style="fill:#0e926b;fill-opacity:1;fill-rule:nonzero;stroke:none"
         id="path961-4" /><path
         d="m -133.70516,651.89529 c -0.197,2.012 -0.551,5.293 -1.099,9.397 l 17.687,16.78 c 5.315,5.041 10.777,7.461 16.237,7.163 7.792,-0.414 13.223,-6.157 13.9,-6.907 l 4.645,-6.849 -0.001,-10e-4 6.095,-8.987 c -10.067,-6.61 -42.643,-9.756 -57.464,-10.596 m 23.937,219.447 c -94.972,0 -171.961,-76.989 -171.961,-171.96 0,-37.848 12.238,-72.834 32.958,-101.235 -0.027,14.25 1.578,31.155 4.796,50.979 10.095,62.159 43.431,81.444 54.526,86.214 2.412,1.037 4.421,2.831 5.665,5.144 l 4.447,8.271 c 0.713,1.326 1.164,2.776 1.328,4.273 l 4.407,40.149 c -15.95,-26.428 -59.63,-81.495 -59.63,-81.495 32.683,139.183 59.144,120.96 68.898,106.976 55.537,2.318 64.113,-11.958 69.132,-20.665 4.242,-7.36 -0.345,-18.084 -0.345,-18.084 9.115,-7.948 -11.738,-37.012 -11.738,-37.012 l 1.62,-12.972 -6.61,2.543 -9.377,-12.787 c -4.53,-6.176 -13.572,-6.988 -18.957,-1.542 -4.135,4.181 -7.732,12.887 -7.732,12.887 l -8.308,-13.925 c 10.046,-12.669 15.055,-40.064 17.147,-55.265 1.016,-7.389 1.607,-14.735 1.607,-14.735 0,0 55.464,2.869 66.336,13.245 0,0 1.11,1.156 1.465,1.705 0.755,1.166 1.895,2.212 3.307,3.156 l -9.454,13.848 34.208,73.419 c 2.446,5.251 8.991,7.097 13.82,3.898 l 26.928,-17.837 c 4.005,-2.652 5.392,-7.883 3.226,-12.171 l -28.848,-57.105 c 0.168,-2.839 0.324,-7.373 0.408,-11.629 0.118,-5.957 -4.715,-10.833 -10.672,-10.798 -0.053,0.01 -0.412,0.076 -0.994,0.142 l -6.879,-13.616 -8.155,11.946 c -1.494,-0.484 -69.683,-28.459 -72.801,-29.79 -8.221,-2.029 -20.975,-3.525 -23.946,-0.559 -5.091,5.091 -28.895,36.314 -28.895,36.314 v -43.194 l 4.584,29.652 c 6.106,-7.918 17.217,-22.16 21.07,-26.013 5.88,-5.881 24.751,-1.533 28.474,-0.603 l 0.344,0.117 c 0.455,0.192 44.351,18.944 64.702,26.826 l 52.157,-76.928 c 42.286,31.328 69.701,81.588 69.701,138.256 0,94.971 -76.989,171.96 -171.959,171.96"
         style="fill:#0e926b;fill-opacity:1;fill-rule:nonzero;stroke:none"
         id="path965-6" /></g></g></svg>
